<svg version="1.1" xmlns="http://www.w3.org/2000/svg" style="display: block;" viewBox="0 0 2048 2048" width="1024" height="1024" preserveAspectRatio="none">
<defs>
	<linearGradient id="Gradient1" gradientUnits="userSpaceOnUse" x1="1080.71" y1="912.17" x2="1270.95" y2="979.781">
		<stop class="stop0" offset="0" stop-opacity="1" stop-color="rgb(84,139,193)"/>
		<stop class="stop1" offset="1" stop-opacity="1" stop-color="rgb(168,83,198)"/>
	</linearGradient>
	<linearGradient id="Gradient2" gradientUnits="userSpaceOnUse" x1="966.151" y1="1008.62" x2="936.727" y2="1021.56">
		<stop class="stop0" offset="0" stop-opacity="1" stop-color="rgb(28,36,64)"/>
		<stop class="stop1" offset="1" stop-opacity="1" stop-color="rgb(49,47,104)"/>
	</linearGradient>
	<linearGradient id="Gradient3" gradientUnits="userSpaceOnUse" x1="1333.22" y1="1040.31" x2="1156.39" y2="926.014">
		<stop class="stop0" offset="0" stop-opacity="1" stop-color="rgb(198,87,193)"/>
		<stop class="stop1" offset="1" stop-opacity="1" stop-color="rgb(131,121,201)"/>
	</linearGradient>
	<linearGradient id="Gradient4" gradientUnits="userSpaceOnUse" x1="864.777" y1="1088.07" x2="976.995" y2="930.501">
		<stop class="stop0" offset="0" stop-opacity="1" stop-color="rgb(112,113,191)"/>
		<stop class="stop1" offset="1" stop-opacity="1" stop-color="rgb(87,156,203)"/>
	</linearGradient>
	<linearGradient id="Gradient5" gradientUnits="userSpaceOnUse" x1="1309.05" y1="1025.54" x2="1170.06" y2="935.362">
		<stop class="stop0" offset="0" stop-opacity="1" stop-color="rgb(196,81,195)"/>
		<stop class="stop1" offset="1" stop-opacity="1" stop-color="rgb(133,110,202)"/>
	</linearGradient>
	<linearGradient id="Gradient6" gradientUnits="userSpaceOnUse" x1="890.728" y1="1084.87" x2="942.651" y2="838.698">
		<stop class="stop0" offset="0" stop-opacity="1" stop-color="rgb(111,124,197)"/>
		<stop class="stop1" offset="1" stop-opacity="1" stop-color="rgb(82,167,206)"/>
	</linearGradient>
	<linearGradient id="Gradient7" gradientUnits="userSpaceOnUse" x1="679.157" y1="865.519" x2="984" y2="1025.18">
		<stop class="stop0" offset="0" stop-opacity="1" stop-color="rgb(24,33,47)"/>
		<stop class="stop1" offset="1" stop-opacity="1" stop-color="rgb(35,35,65)"/>
	</linearGradient>
</defs>
<path transform="translate(0,0)" fill="rgb(231,231,230)" d="M 0 0 L 2048 0 L 2048 2048 L 0 2048 L 0 0 z"/>
<path transform="translate(0,0)" fill="rgb(27,31,46)" d="M 1088.61 739.467 L 1190.87 739.041 C 1207.32 738.998 1224.59 738.594 1241.05 739.386 C 1252.08 739.917 1252.04 747.768 1252.22 756.288 C 1283.46 769.886 1305.27 783.369 1328.77 809.027 C 1364.09 847.221 1382.52 898.042 1379.88 949.995 C 1377.11 1003.6 1353.3 1053.94 1313.62 1090.08 C 1272.86 1127.17 1218.81 1146.17 1163.81 1142.74 C 1092.32 1138.45 1049.49 1101.24 1004.46 1050.89 C 979.671 1083.81 946.911 1109.88 909.266 1126.65 C 880.381 1138.82 849.084 1144.19 817.793 1142.34 C 765.051 1139.34 715.73 1115.26 680.928 1075.52 C 607.712 991.664 614.583 865.48 699.615 792.611 C 739.152 759.101 790.302 742.52 841.98 746.459 C 908.154 751.672 952.139 782.816 993.755 831.66 C 1000.63 825.415 1008 816.89 1014.8 810.182 C 1032.37 792.849 1056.47 772.329 1079.21 762.748 C 1078.85 752.328 1076.02 741.78 1088.61 739.467 z"/>
<path transform="translate(0,0)" fill="rgb(27,31,46)" d="M 994.627 1039.56 C 986.765 1049.06 978.562 1058.26 970.036 1067.16 C 933.109 1105 885.503 1127.38 832.365 1127.98 C 783.274 1128.38 736.035 1109.27 701.018 1074.86 C 665.404 1039.67 645.233 991.769 644.943 941.702 C 644.772 822.775 759.788 736.063 872.44 766.291 C 916.813 778.197 946.094 798.819 976.097 833.929 C 991.354 851.784 1006.07 873.688 1022.09 889.823 L 1023.29 892.579 L 1021.7 893.389 C 1024.48 896.34 1036.87 909.02 1037.27 911.898 C 1033.74 915.328 1033.49 919.559 1032.89 924.255 C 1027.36 920.335 1013.33 897.508 1009.81 898.067 C 1009.64 898.095 1009.5 898.226 1009.34 898.306 L 1012.86 902.774 C 1009.15 910.911 1008.57 911.642 1009.45 920.781 C 1012.43 926.366 1041.17 961.854 1046.23 966.342 C 1061.7 986.766 1076.52 1007.33 1095.38 1024.84 C 1103.51 1032.39 1109.92 1035.52 1116.9 1041.32 C 1120.61 1042.56 1126.82 1046 1130.7 1047.69 C 1208.1 1081.54 1296.81 1023.26 1295.22 938.165 C 1294.55 902.127 1281.69 881.116 1256.72 856.265 C 1251.12 863.816 1249 864.494 1239.67 865.101 L 1237.96 864.21 C 1235.92 869.903 1239.97 881.837 1231.66 885.791 C 1226.89 883.991 1225.83 879.965 1225.87 875.137 C 1222.56 853.824 1224.92 838.374 1227.11 817.826 C 1234.63 815.814 1236.21 816.353 1238.62 809.096 L 1239.6 812.223 C 1249.3 817.324 1251.49 811.151 1252.97 802.923 C 1280.42 812.487 1310.84 849.511 1322.76 875.156 C 1381.7 1001.94 1255.3 1137.21 1124.65 1091.18 C 1118.73 1089.09 1113.17 1086.78 1107.84 1083.57 C 1061.17 1066.09 987.568 961.192 954.065 920.359 C 935.718 897.653 918.873 871.926 895.698 853.771 C 846.215 815.005 775.841 825.229 738.225 875.587 C 720.113 900.223 712.521 931.042 717.117 961.272 C 725.654 1017.9 779.089 1060.81 836.006 1056.79 C 846.024 1056.08 854.767 1053.87 864.528 1052.37 C 870.139 1052.39 872.461 1051.19 877.525 1048.87 C 883.074 1050.05 884.102 1053.95 882.962 1059.1 L 875.21 1061.84 C 874.901 1063.15 874.77 1062.64 875.117 1063.41 C 879.871 1062.2 882.196 1061.14 886.724 1059.16 C 891.241 1063.29 893.838 1064.96 898.293 1068.68 C 907.43 1067.21 923.17 1050.27 933.544 1051.27 C 936.102 1051.52 937.233 1054.41 938.573 1056.57 C 938.06 1058.73 937.845 1059.34 937.117 1061.42 L 943.177 1057.6 L 945.233 1057.13 C 945.873 1054.15 948.025 1052.85 950.412 1050.73 L 951.574 1049.71 C 950.396 1047.99 949.482 1046.71 948.874 1044.7 C 962.723 1037.84 966.752 1028.65 978.03 1020.14 C 980.327 1022.56 983.101 1025.29 984.992 1027.95 L 986.18 1028.35 C 987.701 1031.1 992.488 1036.85 994.627 1039.56 z"/>
<path transform="translate(0,0)" fill="rgb(94,151,202)" d="M 994.627 1039.56 C 986.765 1049.06 978.562 1058.26 970.036 1067.16 C 933.109 1105 885.503 1127.38 832.365 1127.98 C 783.274 1128.38 736.035 1109.27 701.018 1074.86 C 665.404 1039.67 645.233 991.769 644.943 941.702 C 644.772 822.775 759.788 736.063 872.44 766.291 C 916.813 778.197 946.094 798.819 976.097 833.929 C 991.354 851.784 1006.07 873.688 1022.09 889.823 L 1023.29 892.579 L 1021.7 893.389 C 1024.48 896.34 1036.87 909.02 1037.27 911.898 C 1033.74 915.328 1033.49 919.559 1032.89 924.255 C 1027.36 920.335 1013.33 897.508 1009.81 898.067 C 1009.64 898.095 1009.5 898.226 1009.34 898.306 L 1012.86 902.774 C 1009.15 910.911 1008.57 911.642 1009.45 920.781 L 971.31 872.895 C 935.967 828.675 904.691 795.753 844.501 789.097 C 803.539 784.495 762.44 796.497 730.391 822.42 C 698.391 848.342 678.124 886.016 674.129 927.004 C 670.074 968.588 682.662 1010.08 709.138 1042.41 C 737.357 1076.28 773.591 1094.84 817.517 1099.24 C 854.105 1102.9 910.515 1087.21 937.117 1061.42 L 943.177 1057.6 L 945.233 1057.13 C 945.873 1054.15 948.025 1052.85 950.412 1050.73 L 951.574 1049.71 C 950.396 1047.99 949.482 1046.71 948.874 1044.7 C 962.723 1037.84 966.752 1028.65 978.03 1020.14 C 980.327 1022.56 983.101 1025.29 984.992 1027.95 L 986.18 1028.35 C 987.701 1031.1 992.488 1036.85 994.627 1039.56 z"/>
<path transform="translate(0,0)" fill="url(#Gradient7)" d="M 986.18 1028.35 C 980.766 1036.03 965.652 1052.38 958.498 1059.24 C 922.455 1093.51 877.434 1115.01 827.225 1114.31 C 734.188 1113.01 657.075 1032.81 659.33 939.859 C 660.446 893.833 679.366 849.975 713.506 818.609 C 746.679 788.359 790.459 772.44 835.314 774.319 C 905.196 777.883 949.163 818.806 988.164 871.833 C 994.101 879.905 1001.97 890.255 1008.69 897.605 L 1009.34 898.306 L 1012.86 902.774 C 1009.15 910.911 1008.57 911.642 1009.45 920.781 L 971.31 872.895 C 935.967 828.675 904.691 795.753 844.501 789.097 C 803.539 784.495 762.44 796.497 730.391 822.42 C 698.391 848.342 678.124 886.016 674.129 927.004 C 670.074 968.588 682.662 1010.08 709.138 1042.41 C 737.357 1076.28 773.591 1094.84 817.517 1099.24 C 854.105 1102.9 910.515 1087.21 937.117 1061.42 L 943.177 1057.6 L 945.233 1057.13 C 945.873 1054.15 948.025 1052.85 950.412 1050.73 L 951.574 1049.71 C 950.396 1047.99 949.482 1046.71 948.874 1044.7 C 962.723 1037.84 966.752 1028.65 978.03 1020.14 C 980.327 1022.56 983.101 1025.29 984.992 1027.95 L 986.18 1028.35 z"/>
<path transform="translate(0,0)" fill="rgb(94,151,202)" d="M 937.117 1061.42 C 910.515 1087.21 854.105 1102.9 817.517 1099.24 C 773.591 1094.84 737.357 1076.28 709.138 1042.41 C 682.662 1010.08 670.074 968.588 674.129 927.004 C 678.124 886.016 698.391 848.342 730.391 822.42 C 762.44 796.497 803.539 784.495 844.501 789.097 C 904.691 795.753 935.967 828.675 971.31 872.895 L 1009.45 920.781 C 1012.43 926.366 1041.17 961.854 1046.23 966.342 C 1061.7 986.766 1076.52 1007.33 1095.38 1024.84 C 1103.51 1032.39 1109.92 1035.52 1116.9 1041.32 C 1107.62 1041.61 1106.41 1030.98 1099.11 1035.28 C 1097.33 1038.06 1096.67 1038.5 1096.48 1041.77 C 1101.15 1044.67 1105.77 1047.65 1110.34 1050.71 L 1110.62 1052.56 C 1077.48 1038.06 1017.59 953.452 992.821 923.958 C 949.815 872.757 920.615 811.614 845.008 803.723 C 685.267 787.052 626.366 999.491 768.137 1071.34 C 810.657 1092.89 855.673 1088.17 898.293 1068.68 C 907.43 1067.21 923.17 1050.27 933.544 1051.27 C 936.102 1051.52 937.233 1054.41 938.573 1056.57 C 938.06 1058.73 937.845 1059.34 937.117 1061.42 z"/>
<path transform="translate(0,0)" fill="url(#Gradient6)" d="M 875.117 1063.41 C 858.502 1071.49 828.393 1072.86 810.483 1069.85 C 728.347 1056.04 679.566 971.059 711.421 893.949 C 724.324 862.765 749.177 838.046 780.431 825.312 C 811.196 812.768 845.682 812.946 876.316 825.808 C 915.697 842.588 941.279 880.065 966.68 912.899 C 985.573 937.321 1004.14 961.826 1023.97 985.528 C 1040.54 1005.75 1055.98 1026.12 1075.19 1044.1 C 1088.45 1056.51 1098.43 1061.94 1113.72 1071.28 L 1112.42 1071.94 L 1113.45 1073.28 C 1113.04 1075.28 1111.85 1081.81 1111.08 1083.33 L 1108.53 1082.94 L 1107.84 1083.57 C 1061.17 1066.09 987.568 961.192 954.065 920.359 C 935.718 897.653 918.873 871.926 895.698 853.771 C 846.215 815.005 775.841 825.229 738.225 875.587 C 720.113 900.223 712.521 931.042 717.117 961.272 C 725.654 1017.9 779.089 1060.81 836.006 1056.79 C 846.024 1056.08 854.767 1053.87 864.528 1052.37 C 870.139 1052.39 872.461 1051.19 877.525 1048.87 C 883.074 1050.05 884.102 1053.95 882.962 1059.1 L 875.21 1061.84 C 874.901 1063.15 874.77 1062.64 875.117 1063.41 z"/>
<path transform="translate(0,0)" fill="rgb(163,96,200)" d="M 1238.62 809.096 L 1239.6 812.223 C 1249.3 817.324 1251.49 811.151 1252.97 802.923 C 1253.15 808.274 1253.3 813.215 1253.19 818.589 C 1257.82 821.229 1265.27 825.166 1268.61 829.168 C 1271.49 837.811 1271.28 840.95 1270.94 850.282 C 1347.58 925.625 1302.42 1051.98 1199.45 1069.64 C 1171.7 1074.4 1133.95 1069.37 1110.62 1052.56 L 1110.34 1050.71 C 1105.77 1047.65 1101.15 1044.67 1096.48 1041.77 C 1096.67 1038.5 1097.33 1038.06 1099.11 1035.28 C 1106.41 1030.98 1107.62 1041.61 1116.9 1041.32 C 1120.61 1042.56 1126.82 1046 1130.7 1047.69 C 1208.1 1081.54 1296.81 1023.26 1295.22 938.165 C 1294.55 902.127 1281.69 881.116 1256.72 856.265 C 1251.12 863.816 1249 864.494 1239.67 865.101 L 1237.96 864.21 C 1235.92 869.903 1239.97 881.837 1231.66 885.791 C 1226.89 883.991 1225.83 879.965 1225.87 875.137 C 1222.56 853.824 1224.92 838.374 1227.11 817.826 C 1234.63 815.814 1236.21 816.353 1238.62 809.096 z"/>
<path transform="translate(0,0)" fill="rgb(141,68,179)" d="M 1238.62 809.096 L 1239.6 812.223 C 1249.3 817.324 1251.49 811.151 1252.97 802.923 C 1253.15 808.274 1253.3 813.215 1253.19 818.589 C 1257.82 821.229 1265.27 825.166 1268.61 829.168 C 1271.49 837.811 1271.28 840.95 1270.94 850.282 C 1263.58 843.636 1262.52 842.987 1260.08 833.041 C 1246.95 819.219 1237.98 822.192 1228.12 836.569 C 1227.54 837.234 1226.96 837.898 1226.37 838.563 C 1225.39 850.702 1226.52 862.887 1225.87 875.137 C 1222.56 853.824 1224.92 838.374 1227.11 817.826 C 1234.63 815.814 1236.21 816.353 1238.62 809.096 z"/>
<path transform="translate(0,0)" fill="rgb(132,98,189)" d="M 1225.87 875.137 C 1226.52 862.887 1225.39 850.702 1226.37 838.563 C 1226.96 837.898 1227.54 837.234 1228.12 836.569 C 1232.72 867.857 1245.81 851.472 1256.04 855.199 L 1256.72 856.265 C 1251.12 863.816 1249 864.494 1239.67 865.101 L 1237.96 864.21 C 1235.92 869.903 1239.97 881.837 1231.66 885.791 C 1226.89 883.991 1225.83 879.965 1225.87 875.137 z"/>
<path transform="translate(0,0)" fill="rgb(231,231,230)" d="M 1239.01 828.288 C 1256.31 825.809 1262.07 839.49 1250.9 852.302 C 1232.61 856.989 1232.66 839.352 1239.01 828.288 z"/>
<path transform="translate(0,0)" fill="url(#Gradient5)" d="M 1252.97 802.923 C 1280.42 812.487 1310.84 849.511 1322.76 875.156 C 1381.7 1001.94 1255.3 1137.21 1124.65 1091.18 C 1118.73 1089.09 1113.17 1086.78 1107.84 1083.57 L 1108.53 1082.94 L 1111.08 1083.33 C 1111.85 1081.81 1113.04 1075.28 1113.45 1073.28 L 1112.42 1071.94 L 1113.72 1071.28 C 1143.63 1081.89 1152.7 1087.25 1186.52 1085.26 C 1225.44 1082.86 1261.79 1064.97 1287.43 1035.59 C 1313.25 1006.19 1326.03 967.566 1322.83 928.567 C 1319.91 888.432 1298.64 854.834 1268.61 829.168 C 1265.27 825.166 1257.82 821.229 1253.19 818.589 C 1253.3 813.215 1253.15 808.274 1252.97 802.923 z"/>
<path transform="translate(0,0)" fill="rgb(231,231,230)" d="M 1141.74 781.225 C 1165.05 780.964 1188.36 780.974 1211.67 781.255 C 1211.55 805.051 1211.62 828.847 1211.86 852.642 C 1211.92 863.098 1211.43 877.759 1212.14 887.612 C 1220.86 899.961 1223.83 902.8 1239.1 898.456 C 1250.68 916.254 1255.7 931.996 1251.2 953.381 C 1246.99 973.623 1234.73 991.285 1217.24 1002.31 C 1199.94 1013.41 1178.84 1016.93 1158.88 1012.03 C 1132.24 1005.66 1116.35 988.922 1101.06 967.532 C 1097.25 962.202 1088.97 951.852 1084.22 947.915 C 1084.06 939.002 1083.97 930.962 1083.11 922.058 L 1093.58 921.428 C 1091.61 918.124 1092.18 916.912 1092.64 912.804 L 1093.39 906.154 C 1099.37 906.094 1101.42 906.195 1107.4 904.671 L 1117.31 907.016 C 1124.02 906.818 1133.27 907.566 1137.86 901.508 C 1145.02 892.053 1140.16 800.948 1141.74 781.225 z"/>
<path transform="translate(0,0)" fill="rgb(26,88,115)" d="M 1107.4 904.671 L 1117.31 907.016 C 1117.31 924.914 1107.79 920.663 1093.58 921.428 C 1091.61 918.124 1092.18 916.912 1092.64 912.804 L 1093.39 906.154 C 1099.37 906.094 1101.42 906.195 1107.4 904.671 z"/>
<path transform="translate(0,0)" fill="rgb(231,231,230)" d="M 863.857 1006.16 C 847.829 1015.54 825.273 1016.49 807.798 1011.04 C 789.637 1005.42 774.553 992.641 766.03 975.65 C 757.357 958.801 755.835 939.17 761.806 921.185 C 767.299 903.843 779.464 889.397 795.619 881.034 C 831.566 862.837 874.039 877.755 891.848 913.717 C 901.544 933.296 898.147 952.403 891.315 972.154 L 888.88 976.662 C 881.933 984.54 865.441 983.019 865.462 999.225 C 865.466 1002.52 865.794 1003.49 863.857 1006.16 z"/>
<path transform="translate(0,0)" fill="url(#Gradient4)" d="M 854.177 1040.27 C 833.861 1047.78 802.549 1041.75 783.856 1031.88 C 759.637 1019.08 741.524 997.15 733.535 970.95 C 726.026 945.859 728.907 918.804 741.532 895.858 C 754.091 872.542 775.463 855.226 800.876 847.777 C 825.299 840.861 853.986 844.064 875.95 856.826 C 901.13 871.454 920.1 898.91 937.839 921.851 C 962.802 954.646 988.511 986.866 1014.95 1018.49 C 1045.53 1055.07 1062.63 1076.58 1106.42 1099.29 C 1107.92 1101.27 1108.63 1101.98 1110.62 1103.45 C 1109.68 1106.55 1109.03 1108.95 1107.65 1111.92 C 1103.69 1112.31 1104.14 1109.3 1099.33 1109.87 L 1098.43 1110.39 C 1034.96 1084.21 967.73 978.365 922.446 925.424 C 890.838 888.471 870.874 850.278 813.004 859.594 C 791.19 863.321 771.76 875.585 759.011 893.673 C 745.629 912.811 740.44 936.498 744.594 959.478 C 751.219 994.756 781.507 1023.64 817.19 1027.86 C 831.317 1029.54 840.229 1028.28 854.128 1025.64 C 855.972 1024.71 863.001 1022.43 865.323 1021.62 C 869.163 1020.27 870.946 1018.78 873.941 1020.07 C 874.718 1025.39 875.025 1028.2 878.689 1032.41 C 871.912 1035.51 861.511 1039.36 854.177 1040.27 z"/>
<path transform="translate(0,0)" fill="rgb(163,96,200)" d="M 865.323 1021.62 C 869.163 1020.27 870.946 1018.78 873.941 1020.07 C 874.718 1025.39 875.025 1028.2 878.689 1032.41 C 871.912 1035.51 861.511 1039.36 854.177 1040.27 C 856.343 1037.36 860.376 1037.03 864.281 1036 C 866.102 1032.8 865.583 1026.83 862.715 1024.28 C 859.551 1025.61 858.971 1025.8 855.63 1026.58 L 854.128 1025.64 C 855.972 1024.71 863.001 1022.43 865.323 1021.62 z"/>
<path transform="translate(0,0)" fill="url(#Gradient3)" d="M 1253.03 772.636 C 1347.29 813.86 1392.07 919.505 1350.13 1014.51 C 1329.47 1061.28 1291.01 1097.88 1243.28 1116.21 C 1198.3 1133.66 1148.22 1132.51 1104.09 1112.99 C 1102.19 1112.14 1100.31 1111.27 1098.43 1110.39 L 1099.33 1109.87 C 1104.14 1109.3 1103.69 1112.31 1107.65 1111.92 C 1109.03 1108.95 1109.68 1106.55 1110.62 1103.45 C 1108.63 1101.98 1107.92 1101.27 1106.42 1099.29 C 1150.01 1117.82 1196.06 1120.62 1239.96 1102.5 C 1381.53 1044.08 1391.03 855.839 1252.99 786.83 L 1253.03 772.636 z"/>
<path transform="translate(0,0)" fill="rgb(141,68,179)" d="M 930.504 960.455 L 941.346 972.064 C 935.892 978.042 923.465 989.322 923.334 996.018 C 927.691 1001.34 929.426 998.943 935.578 999.396 C 940.072 993.795 944.625 989.056 949.543 983.838 C 952.928 987.458 956.503 991.836 959.768 995.64 C 963.074 998.125 967.247 1003.63 969.168 1007.24 C 971.31 1010.62 977.227 1017.66 978.03 1020.14 C 966.752 1028.65 962.723 1037.84 948.874 1044.7 C 949.482 1046.71 950.396 1047.99 951.574 1049.71 L 950.412 1050.73 C 948.025 1052.85 945.873 1054.15 945.233 1057.13 L 943.177 1057.6 L 937.117 1061.42 C 937.845 1059.34 938.06 1058.73 938.573 1056.57 C 937.233 1054.41 936.102 1051.52 933.544 1051.27 C 923.17 1050.27 907.43 1067.21 898.293 1068.68 C 893.838 1064.96 891.241 1063.29 886.724 1059.16 C 882.196 1061.14 879.871 1062.2 875.117 1063.41 C 874.77 1062.64 874.901 1063.15 875.21 1061.84 L 882.962 1059.1 C 884.102 1053.95 883.074 1050.05 877.525 1048.87 C 872.461 1051.19 870.139 1052.39 864.528 1052.37 C 870.361 1050.03 876.118 1047.5 881.791 1044.8 C 881.531 1042.65 879.34 1034.93 878.689 1032.41 C 875.025 1028.2 874.718 1025.39 873.941 1020.07 C 870.946 1018.78 869.163 1020.27 865.323 1021.62 C 865.785 1017.62 864.457 1010.42 863.857 1006.16 C 865.794 1003.49 865.466 1002.52 865.462 999.225 C 865.441 983.019 881.933 984.54 888.88 976.662 L 891.315 972.154 C 898.883 975.02 906.012 978.93 912.496 983.773 C 918.452 975.964 924.455 968.191 930.504 960.455 z"/>
<path transform="translate(0,0)" fill="url(#Gradient2)" d="M 949.543 983.838 C 952.928 987.458 956.503 991.836 959.768 995.64 C 963.074 998.125 967.247 1003.63 969.168 1007.24 C 971.31 1010.62 977.227 1017.66 978.03 1020.14 C 966.752 1028.65 962.723 1037.84 948.874 1044.7 C 944.576 1044.37 940.205 1044.06 938.691 1039.79 L 941.087 1036.75 C 937.962 1027.59 938.162 1026.24 939.229 1016.94 L 942.789 1013.28 C 941.305 1009.86 936.632 1005.47 933.898 1002.58 L 935.578 999.396 C 940.072 993.795 944.625 989.056 949.543 983.838 z"/>
<path transform="translate(0,0)" fill="rgb(78,80,156)" d="M 969.168 1007.24 C 971.31 1010.62 977.227 1017.66 978.03 1020.14 C 966.752 1028.65 962.723 1037.84 948.874 1044.7 C 944.576 1044.37 940.205 1044.06 938.691 1039.79 L 941.087 1036.75 C 950.241 1026.72 959.603 1016.88 969.168 1007.24 z"/>
<path transform="translate(0,0)" fill="rgb(78,80,156)" d="M 949.543 983.838 C 952.928 987.458 956.503 991.836 959.768 995.64 C 954.235 1001.44 948.475 1007.69 942.789 1013.28 C 941.305 1009.86 936.632 1005.47 933.898 1002.58 L 935.578 999.396 C 940.072 993.795 944.625 989.056 949.543 983.838 z"/>
<path transform="translate(0,0)" fill="rgb(78,80,156)" d="M 930.504 960.455 L 941.346 972.064 C 935.892 978.042 923.465 989.322 923.334 996.018 C 927.691 1001.34 929.426 998.943 935.578 999.396 L 933.898 1002.58 L 928.501 1008.22 C 920.926 1001.69 921.441 1005.71 917.066 994.105 C 913.391 984.357 898.408 979.379 888.88 976.662 L 891.315 972.154 C 898.883 975.02 906.012 978.93 912.496 983.773 C 918.452 975.964 924.455 968.191 930.504 960.455 z"/>
<path transform="translate(0,0)" fill="rgb(163,96,200)" d="M 881.791 1044.8 C 889.626 1044.03 896.075 1038.22 900.529 1032.18 C 902.852 1039.68 903.442 1043.15 911.84 1044.75 C 905.028 1050.81 890.719 1055.83 886.724 1059.16 C 882.196 1061.14 879.871 1062.2 875.117 1063.41 C 874.77 1062.64 874.901 1063.15 875.21 1061.84 L 882.962 1059.1 C 884.102 1053.95 883.074 1050.05 877.525 1048.87 C 872.461 1051.19 870.139 1052.39 864.528 1052.37 C 870.361 1050.03 876.118 1047.5 881.791 1044.8 z"/>
<path transform="translate(0,0)" fill="rgb(58,50,119)" d="M 939.229 1016.94 C 938.162 1026.24 937.962 1027.59 941.087 1036.75 L 938.691 1039.79 C 940.205 1044.06 944.576 1044.37 948.874 1044.7 C 949.482 1046.71 950.396 1047.99 951.574 1049.71 L 950.412 1050.73 C 948.025 1052.85 945.873 1054.15 945.233 1057.13 L 943.177 1057.6 C 942.074 1054.11 931.64 1049.14 927.885 1047.03 C 928.767 1045.5 929.609 1043.95 930.412 1042.39 C 933.95 1035.35 934.263 1030.05 931.839 1022.77 L 939.229 1016.94 z"/>
<path transform="translate(0,0)" fill="rgb(231,231,230)" d="M 913.186 1023.61 C 923.909 1033.22 924.024 1036.02 911.84 1044.75 C 903.442 1043.15 902.852 1039.68 900.529 1032.18 C 905.867 1027.23 906.972 1026.98 913.186 1023.61 z"/>
<path transform="translate(0,0)" fill="rgb(132,98,189)" d="M 933.898 1002.58 C 936.632 1005.47 941.305 1009.86 942.789 1013.28 L 939.229 1016.94 L 931.839 1022.77 C 931.076 1022.9 930.15 1022.52 929.267 1022.3 C 931.098 1018.6 928.577 1014.71 926.342 1011.85 C 926.52 1010.37 927.362 1009.79 928.501 1008.22 L 933.898 1002.58 z"/>
<path transform="translate(0,0)" fill="rgb(163,96,200)" d="M 926.342 1011.85 C 928.577 1014.71 931.098 1018.6 929.267 1022.3 C 926.877 1021.9 924.481 1021.53 922.081 1021.19 L 921.059 1019.73 C 922.856 1016.5 924.121 1014.84 926.342 1011.85 z"/>
<path transform="translate(0,0)" fill="rgb(241,216,241)" d="M 888.343 993.021 C 904.345 991.737 908.085 1006.53 891.783 1014.13 C 877.16 1011.82 872.797 1001.01 888.343 993.021 z"/>
<path transform="translate(0,0)" fill="rgb(89,189,210)" d="M 1022.09 889.823 C 1025.32 889.396 1036.9 890.324 1038.32 888.725 C 1051.7 873.613 1066.08 858.241 1080.96 844.604 C 1081.03 851.506 1081.29 855.442 1082.13 862.292 C 1079.1 867.848 1070.87 876.596 1066.35 881.49 C 1072.17 881.567 1081.91 881.965 1087.31 881.528 L 1090.86 879.635 C 1097.66 880.032 1099.25 882.83 1105.01 885.036 C 1105.73 891.589 1106.53 898.135 1107.4 904.671 C 1101.42 906.195 1099.37 906.094 1093.39 906.154 L 1092.64 912.804 C 1092.18 916.912 1091.61 918.124 1093.58 921.428 L 1083.11 922.058 C 1083.97 930.962 1084.06 939.002 1084.22 947.915 C 1081.14 945.699 1079.47 943.696 1076.16 943.454 C 1073.08 946.87 1073.32 949.027 1070.63 952.324 L 1071.18 953.117 C 1069.68 959.183 1065.25 959.828 1059.38 960.936 L 1060.56 963.061 C 1056.26 964.099 1050.48 965.679 1046.23 966.342 C 1041.17 961.854 1012.43 926.366 1009.45 920.781 C 1008.57 911.642 1009.15 910.911 1012.86 902.774 L 1009.34 898.306 C 1009.5 898.226 1009.64 898.095 1009.81 898.067 C 1013.33 897.508 1027.36 920.335 1032.89 924.255 C 1033.49 919.559 1033.74 915.328 1037.27 911.898 C 1036.87 909.02 1024.48 896.34 1021.7 893.389 L 1023.29 892.579 L 1022.09 889.823 z"/>
<path transform="translate(0,0)" fill="rgb(94,151,202)" d="M 1090.86 879.635 C 1097.66 880.032 1099.25 882.83 1105.01 885.036 C 1105.73 891.589 1106.53 898.135 1107.4 904.671 C 1101.42 906.195 1099.37 906.094 1093.39 906.154 L 1092.64 912.804 C 1092.18 916.912 1091.61 918.124 1093.58 921.428 L 1083.11 922.058 C 1083.97 930.962 1084.06 939.002 1084.22 947.915 C 1081.14 945.699 1079.47 943.696 1076.16 943.454 C 1073.08 946.87 1073.32 949.027 1070.63 952.324 C 1068.63 950.531 1068.13 949.4 1066.62 947.158 C 1068.6 944.563 1070.95 941.819 1073.04 939.279 C 1074.34 931.135 1074.71 920.424 1070.5 912.985 C 1063.25 900.183 1046.46 908.334 1037.58 905.86 L 1038.19 904.89 C 1049.43 901.188 1060.07 901.596 1071.54 903.779 C 1074.68 896.862 1074.15 895.475 1078.93 889.113 C 1081.35 886.495 1084.03 884.683 1086.88 882.54 L 1087.31 881.528 L 1090.86 879.635 z"/>
<path transform="translate(0,0)" fill="rgb(89,189,210)" d="M 1090.86 879.635 C 1097.66 880.032 1099.25 882.83 1105.01 885.036 C 1105.73 891.589 1106.53 898.135 1107.4 904.671 C 1101.42 906.195 1099.37 906.094 1093.39 906.154 L 1092.75 905.655 C 1087.85 906.105 1082.99 906.508 1078.12 907.163 C 1074.42 907.727 1074.9 908.232 1071.98 907.004 L 1071.54 903.779 C 1074.68 896.862 1074.15 895.475 1078.93 889.113 C 1081.35 886.495 1084.03 884.683 1086.88 882.54 L 1087.31 881.528 L 1090.86 879.635 z"/>
<path transform="translate(0,0)" fill="rgb(200,227,237)" d="M 1078.93 889.113 C 1084.04 888.786 1087.9 888.127 1092.8 889.511 C 1093.93 890.653 1094.44 891.065 1095.37 892.371 C 1094.71 896.173 1093.86 902.147 1092.75 905.655 C 1087.85 906.105 1082.99 906.508 1078.12 907.163 C 1074.42 907.727 1074.9 908.232 1071.98 907.004 L 1071.54 903.779 C 1074.68 896.862 1074.15 895.475 1078.93 889.113 z"/>
<path transform="translate(0,0)" fill="rgb(39,136,172)" d="M 1078.12 907.163 C 1082.99 906.508 1087.85 906.105 1092.75 905.655 L 1093.39 906.154 L 1092.64 912.804 C 1092.18 916.912 1091.61 918.124 1093.58 921.428 L 1083.11 922.058 C 1077.74 918.86 1076.16 912.969 1078.12 907.163 z"/>
<path transform="translate(0,0)" fill="rgb(76,108,162)" d="M 1022.09 889.823 C 1025.32 889.396 1036.9 890.324 1038.32 888.725 C 1051.7 873.613 1066.08 858.241 1080.96 844.604 C 1081.03 851.506 1081.29 855.442 1082.13 862.292 C 1079.1 867.848 1070.87 876.596 1066.35 881.49 C 1072.17 881.567 1081.91 881.965 1087.31 881.528 L 1086.88 882.54 C 1084.03 884.683 1081.35 886.495 1078.93 889.113 C 1073.98 889.532 1062.75 891.108 1058.69 889.723 L 1058.57 888.853 C 1060.36 886.969 1061.98 885.31 1063.59 883.258 C 1060.14 882.456 1044.75 885.862 1042.33 887.798 C 1042.31 890.452 1042.83 890.612 1044.33 892.934 C 1039.94 900.426 1028.79 898.175 1023.29 892.579 L 1022.09 889.823 z"/>
<path transform="translate(0,0)" fill="rgb(39,136,172)" d="M 1012.86 902.774 C 1033.87 924.682 1019.67 932.764 1048.56 949.512 C 1053.74 954.069 1055.27 955.31 1059.38 960.936 L 1060.56 963.061 C 1056.26 964.099 1050.48 965.679 1046.23 966.342 C 1041.17 961.854 1012.43 926.366 1009.45 920.781 C 1008.57 911.642 1009.15 910.911 1012.86 902.774 z"/>
<path transform="translate(0,0)" fill="rgb(93,183,216)" d="M 1066.62 947.158 C 1068.13 949.4 1068.63 950.531 1070.63 952.324 L 1071.18 953.117 C 1069.68 959.183 1065.25 959.828 1059.38 960.936 C 1055.27 955.31 1053.74 954.069 1048.56 949.512 C 1054.01 949.721 1061.31 948.409 1066.62 947.158 z"/>
<path transform="translate(0,0)" fill="rgb(231,231,230)" d="M 1046.21 910.322 C 1051.97 908.352 1058.35 909.648 1062.88 913.71 C 1067.42 917.773 1069.4 923.968 1068.08 929.911 C 1066.75 935.853 1062.32 940.615 1056.49 942.363 C 1047.7 944.996 1038.43 940.113 1035.63 931.383 C 1032.83 922.653 1037.54 913.288 1046.21 910.322 z"/>
<path transform="translate(0,0)" fill="url(#Gradient1)" d="M 1249.45 869.174 C 1261.07 874.755 1272.25 895.17 1276.21 907.092 C 1305.49 995.123 1211.13 1073.79 1129.18 1031.65 C 1100.91 1017.12 1079.67 988.005 1060.56 963.061 L 1059.38 960.936 C 1065.25 959.828 1069.68 959.183 1071.18 953.117 C 1074.39 956.643 1078.14 961.946 1080.93 965.874 C 1105.33 1000.23 1132.67 1029.15 1177.93 1029.13 C 1235.8 1029.11 1281.55 970.246 1263.64 914.631 C 1256.65 892.937 1249.73 895.111 1249.45 869.174 z"/>
<path transform="translate(0,0)" fill="rgb(94,151,202)" d="M 1117.77 754.883 C 1135.51 752.617 1159.18 753.067 1177.5 753.123 C 1196.79 753.182 1219.42 752.672 1238.45 753.964 C 1239.26 769.165 1239.04 793.793 1238.62 809.096 C 1236.21 816.353 1234.63 815.814 1227.11 817.826 C 1226.05 803.783 1226.73 781.564 1226.81 767.234 C 1207.23 766.654 1187.49 767.203 1167.86 766.984 C 1163.8 766.939 1130.36 766.591 1129.73 768.582 C 1124.2 785.95 1132.34 881.601 1125.74 890.889 C 1121.9 892.108 1123.64 892.298 1120.32 890.787 C 1116.08 883.835 1118.2 850.745 1118.07 840.457 L 1117.35 786.882 C 1117.24 777.77 1116.63 763.608 1117.77 754.883 z"/>
<path transform="translate(0,0)" fill="rgb(94,151,202)" d="M 1093.53 862.359 C 1095.22 847.498 1091.28 760.066 1094.42 754.208 C 1097.92 752.696 1096.22 752.757 1099.69 753.745 C 1105.99 760.403 1104.15 798.081 1104.21 809.466 C 1105.39 817.661 1105.69 860.363 1105.13 870.772 L 1105.01 885.036 C 1099.25 882.83 1097.66 880.032 1090.86 879.635 L 1087.31 881.528 C 1081.91 881.965 1072.17 881.567 1066.35 881.49 C 1070.87 876.596 1079.1 867.848 1082.13 862.292 L 1083.06 863.852 C 1085.43 864.286 1090.07 865.477 1091.97 864.132 C 1093.31 863.191 1092.89 863.669 1093.53 862.359 z"/>
<path transform="translate(0,0)" fill="rgb(26,88,115)" d="M 1104.21 809.466 C 1105.39 817.661 1105.69 860.363 1105.13 870.772 L 1105.01 885.036 C 1099.25 882.83 1097.66 880.032 1090.86 879.635 L 1087.31 881.528 C 1081.91 881.965 1072.17 881.567 1066.35 881.49 C 1070.87 876.596 1079.1 867.848 1082.13 862.292 L 1083.06 863.852 C 1085.43 864.286 1090.07 865.477 1091.97 864.132 C 1093.31 863.191 1092.89 863.669 1093.53 862.359 C 1095.69 865.999 1100.48 865.96 1104.49 866.693 C 1104.61 847.6 1103.71 828.63 1104.21 809.466 z"/>
<path transform="translate(0,0)" fill="rgb(39,136,172)" d="M 1090.86 879.635 C 1097.02 869.075 1096.14 874.871 1103.95 869.292 L 1105.13 870.772 L 1105.01 885.036 C 1099.25 882.83 1097.66 880.032 1090.86 879.635 z"/>
<path transform="translate(0,0)" fill="rgb(76,108,162)" d="M 1077.96 779.788 L 1079.17 780.127 C 1080.52 783.067 1079.89 790.294 1079.8 793.92 C 1059.1 805.931 1044.45 820.344 1027.77 837.131 C 1023.83 841.091 1015.32 851.5 1011.96 853.747 L 1010.31 852.935 L 1002.97 844.849 C 1027.4 816.727 1045.42 798.673 1077.96 779.788 z"/>
<path transform="translate(0,0)" fill="rgb(76,108,162)" d="M 1078.46 810.784 L 1079.27 811.475 C 1080.48 814.68 1080.06 822.922 1080.05 826.767 C 1067.6 836.167 1059.28 844.123 1049.08 855.782 C 1045.38 860.02 1032.28 875.435 1029.03 876.764 L 1027.25 875.156 L 1019.68 866.879 C 1043.52 842.69 1049.58 832.035 1078.46 810.784 z"/>
<path transform="translate(0,0)" fill="rgb(27,31,46)" d="M 1520.3 730.5 C 1552.82 730.009 1576.14 730.531 1606.45 744.37 C 1644.63 761.599 1674.43 793.266 1689.3 832.428 C 1703.8 871.627 1702.01 915.002 1684.33 952.875 C 1659.86 1004.9 1609.12 1039.58 1551.75 1043.48 C 1538.67 1044.36 1509.71 1043.1 1499.84 1046.7 C 1494.23 1057.33 1500.12 1121.23 1497.45 1137.1 C 1496.21 1144.52 1495.43 1145.23 1489.2 1149.81 C 1460.69 1149.19 1432.18 1149.11 1403.67 1149.55 C 1393.29 1142.94 1394.76 1139.93 1394.93 1128.44 L 1394.75 1011.05 C 1394.68 992.429 1393.67 965.048 1394.94 947.418 C 1397.61 944.268 1399.76 942.693 1402.97 940.058 C 1443.45 938.722 1486.79 940.704 1527.72 939.853 C 1549.76 940.279 1566.02 938.587 1582.51 922.185 C 1601.31 903.479 1601.08 872.1 1584.13 852.368 C 1564.18 829.152 1527.34 834.494 1499.57 834.629 L 1430.52 834.961 C 1419.05 835.085 1404.85 837.602 1396.71 830.034 C 1393.68 824.075 1394.98 750.012 1395.01 738.53 C 1397.38 735.67 1400 733.463 1402.75 730.982 C 1438.22 729.461 1484.08 730.734 1520.3 730.5 z"/>
<path transform="translate(0,0)" fill="rgb(27,31,46)" d="M 420.596 730.494 C 434.994 730.338 452.984 726.799 452.928 746.715 C 452.872 766.975 452.856 787.289 452.877 807.548 L 452.931 983.508 C 452.932 993.019 452.41 1035.76 453.56 1041.56 C 460.11 1048.42 482.743 1046.1 492.5 1046.05 L 573.44 1045.69 C 584.145 1045.65 614.944 1044 623.158 1048.23 C 630.728 1059.64 626.022 1106.86 627.416 1123.06 C 628.053 1130.46 626.931 1140.7 622.587 1146.99 C 616.753 1150.96 565.263 1149.18 554.75 1149.13 L 430.481 1149.12 C 409.213 1149.13 387.919 1149.44 366.662 1149.07 C 358.657 1148.93 350.059 1147.66 349.948 1137.7 C 349.727 1117.72 349.751 1097.74 349.747 1077.76 L 349.72 958.778 L 349.594 817.275 C 349.623 794.642 348.868 771.797 349.716 749.188 C 349.85 745.593 349.679 738.708 352.238 736.16 C 361.44 727.002 406.17 730.501 420.596 730.494 z"/>
<path transform="translate(0,0)" fill="rgb(27,31,46)" d="M 1076.63 1227.98 C 1079.27 1227.99 1086.71 1228.15 1087.6 1230.78 C 1093.76 1249 1100.67 1270 1106.13 1288.26 C 1111.17 1273.11 1114.49 1257.44 1118.8 1242.08 C 1120.05 1237.61 1120.88 1231.33 1125.54 1229.2 C 1128.43 1227.87 1134.03 1228.38 1136.79 1229.78 C 1142.75 1232.78 1154.25 1280.64 1156.62 1288.57 C 1158.94 1281.85 1172.01 1232 1175.85 1230.54 C 1200.03 1221.35 1188.47 1247.85 1185.16 1258.2 C 1180.26 1275 1175.9 1291.94 1170.88 1308.71 C 1171.08 1317.33 1156.02 1325.86 1150.43 1320.01 C 1143.16 1312.39 1133.53 1273.31 1130.73 1264.03 C 1124.85 1280.65 1122.13 1299.53 1115.53 1316.13 C 1112.92 1322.7 1101.62 1322.4 1096.89 1319.62 C 1093.05 1314.13 1070.2 1239.97 1070.65 1233.57 C 1072.35 1230.07 1073.27 1229.89 1076.63 1227.98 z"/>
<path transform="translate(0,0)" fill="rgb(27,31,46)" d="M 668.772 1228.25 C 685.118 1226.55 708.166 1230.53 713.896 1248.55 C 713.632 1250.55 713.952 1251.15 712.589 1252.31 C 695.197 1267.61 694.454 1242.27 673.413 1245.48 C 655.53 1248.22 646.555 1263.59 648.809 1280.85 C 650.751 1295.72 665.769 1307.36 680.566 1304.49 C 686.546 1303.33 699.274 1298.32 697.197 1290.24 C 689.887 1285.52 667.233 1293.09 676.775 1272.17 C 683.819 1271.49 691.459 1271.71 698.676 1271.07 C 715.365 1269.58 718.56 1277.75 716.902 1292.84 C 715.657 1304.17 720.37 1333.39 699.635 1317.73 C 697.208 1315.9 684.731 1322.33 681.367 1322.65 C 621.551 1329.59 608.208 1240.85 668.772 1228.25 z"/>
<path transform="translate(0,0)" fill="rgb(27,31,46)" d="M 786.219 1229.18 C 790.928 1228.95 800.746 1227.65 802.779 1232.61 C 807.616 1244.43 837.338 1308.31 835.871 1316.71 C 834.372 1319.23 832.319 1320.55 829.664 1321.64 C 818.75 1326.14 813.95 1307.23 811.379 1300.44 L 799.871 1300.21 L 774.58 1301.04 C 770.849 1311.78 767.426 1329.19 752.261 1319.25 C 751.332 1317.72 749.855 1315.93 750.522 1314.03 C 755.44 1299.99 776.985 1236.39 786.219 1229.18 z"/>
<path transform="translate(0,0)" fill="rgb(231,231,230)" d="M 792.202 1253.72 C 795.633 1258.46 802.968 1276.79 803.801 1283.03 C 801.933 1284.31 797.733 1283.91 795.002 1283.97 L 781.256 1283.9 C 784.438 1274.08 788.598 1263.48 792.202 1253.72 z"/>
<path transform="translate(0,0)" fill="rgb(27,31,46)" d="M 1252.9 1229.12 C 1256.63 1228.7 1267.06 1227.88 1268.69 1230.44 C 1275.01 1240.38 1302.7 1308.14 1302.88 1315.74 C 1301.92 1317.9 1300.87 1319.94 1298.41 1320.79 C 1284.96 1325.38 1281.85 1310.27 1278.18 1300.66 L 1268.28 1300.34 C 1259.52 1300.18 1250.75 1300.37 1242.01 1300.91 C 1239.79 1307.03 1236 1320.89 1228.14 1322.38 C 1223.32 1323.3 1218.27 1319.49 1217.71 1314.33 C 1220.61 1303 1247.12 1235.34 1252.9 1229.12 z"/>
<path transform="translate(0,0)" fill="rgb(231,231,230)" d="M 1260.16 1254.71 C 1264.17 1260.5 1269.27 1275.68 1271.88 1282.91 L 1259.81 1283.47 L 1248.89 1283.09 C 1252.49 1273.57 1256.25 1264.11 1260.16 1254.71 z"/>
<path transform="translate(0,0)" fill="rgb(27,31,46)" d="M 976.161 1229.21 C 983.758 1229.11 1031.47 1227.46 1033.98 1230.6 C 1051.05 1251.99 1000.33 1246.94 990.934 1247.05 L 991.023 1266.12 C 999.92 1266.19 1020.02 1264.77 1027.41 1267.24 C 1028.56 1268.19 1030.45 1269.63 1030.71 1271.22 C 1033.91 1290.86 1004.93 1280.02 991.886 1283.91 L 991.095 1285.89 C 991.059 1291.84 991.288 1297.94 991.432 1303.9 C 1004.76 1303.84 1021.07 1303 1034.01 1304.94 C 1041.51 1306.06 1041.28 1319.92 1029.59 1320.7 C 1018.95 1321.41 982.767 1323.59 974.742 1318.34 C 970.173 1306.92 974.309 1277.18 972.971 1263.4 C 972.137 1254.81 970.151 1235.26 976.161 1229.21 z"/>
<path transform="translate(0,0)" fill="rgb(27,31,46)" d="M 1367.06 1265.19 C 1370.66 1259.42 1387.48 1230.37 1392.12 1229.21 C 1422.4 1221.65 1390.18 1261.71 1384.67 1270.04 C 1382.69 1272.8 1377.18 1280.17 1376.25 1283.1 C 1372.99 1293.33 1379.86 1315.82 1369.22 1322.5 C 1351.91 1325.31 1356.78 1294.76 1356.76 1283.13 C 1351.2 1274.21 1325.47 1240.77 1327.27 1232.79 C 1329.05 1229.9 1330.84 1229.46 1333.93 1227.99 C 1347.68 1228.1 1359.05 1253.44 1367.06 1265.19 z"/>
<path transform="translate(0,0)" fill="rgb(27,31,46)" d="M 864.216 1229.27 C 879.195 1228.89 914.028 1228.12 930.433 1229.63 C 936.87 1230.22 937.501 1247.28 924.644 1246.43 C 921.346 1246.21 910.527 1246.62 906.248 1246.84 C 905.594 1263.43 906.223 1283.09 906.545 1299.75 C 906.716 1304.06 907.784 1315.19 905.378 1318.39 C 901.896 1323.02 894.043 1322.62 890.082 1318.76 C 887.322 1311.7 888.082 1259.46 887.951 1247.1 C 881.356 1246.72 874.53 1247.62 868.199 1246.97 C 857.259 1245.86 854.882 1235.45 864.216 1229.27 z"/>
</svg>